<?xml version="1.0" encoding="UTF-8" standalone="no"?>
<svg width="800" height="300" viewBox="0 0 800 300" xmlns="http://www.w3.org/2000/svg">
  <!-- 返回流程框 -->
  <rect x="600" y="40" width="120" height="40" fill="none" stroke="#333" stroke-width="1" rx="5"/>
  <text x="660" y="55" text-anchor="middle" font-size="12" font-weight="bold">1. 服务器响应</text>
  <text x="660" y="70" text-anchor="middle" font-size="10">数据封装</text>
  
  <rect x="600" y="100" width="120" height="40" fill="none" stroke="#333" stroke-width="1" rx="5"/>
  <text x="660" y="115" text-anchor="middle" font-size="12" font-weight="bold">2. 互联网路由</text>
  <text x="660" y="130" text-anchor="middle" font-size="10">返回转发</text>
  
  <rect x="600" y="160" width="120" height="40" fill="none" stroke="#333" stroke-width="1" rx="5"/>
  <text x="660" y="175" text-anchor="middle" font-size="12" font-weight="bold">3. 客户端路由器</text>
  <text x="660" y="190" text-anchor="middle" font-size="10">反向NAT</text>
  
  <rect x="600" y="220" width="120" height="40" fill="none" stroke="#333" stroke-width="1" rx="5"/>
  <text x="660" y="235" text-anchor="middle" font-size="12" font-weight="bold">4. 交换机转发</text>
  <text x="660" y="250" text-anchor="middle" font-size="10">到达客户端</text>
  
  <!-- 对应说明 -->
  <rect x="50" y="30" width="500" height="50" fill="none" stroke="#ddd" stroke-width="1" rx="3"/>
  <text x="60" y="45" font-size="11" font-weight="bold">响应数据封装</text>
  <text x="60" y="60" font-size="10">源地址: 203.208.60.1:80 → 目标地址: 124.156.78.90:50001</text>
  <text x="60" y="72" font-size="9" fill="#666">服务器不知道客户端的真实内网地址，只知道公网地址</text>
  
  <rect x="50" y="90" width="500" height="50" fill="none" stroke="#ddd" stroke-width="1" rx="3"/>
  <text x="60" y="105" font-size="11" font-weight="bold">互联网返回路由</text>
  <text x="60" y="120" font-size="10">根据目标公网IP(124.156.78.90)进行路由选择</text>
  <text x="60" y="132" font-size="9" fill="#666">经过多个ISP路由器，最终到达客户端所在网络</text>
  
  <rect x="50" y="150" width="500" height="50" fill="none" stroke="#ddd" stroke-width="1" rx="3"/>
  <text x="60" y="165" font-size="11" font-weight="bold">NAT反向转换</text>
  <text x="60" y="180" font-size="10">公网地址 124.156.78.90:50001 → 内网地址 192.168.1.100:12345</text>
  <text x="60" y="192" font-size="9" fill="#666">查询NAT表找到对应的内网地址和端口</text>
  
  <rect x="50" y="210" width="500" height="50" fill="none" stroke="#ddd" stroke-width="1" rx="3"/>
  <text x="60" y="225" font-size="11" font-weight="bold">内网转发</text>
  <text x="60" y="240" font-size="10">交换机根据目标MAC地址转发到对应端口</text>
  <text x="60" y="252" font-size="9" fill="#666">数据包最终到达发起请求的客户端设备</text>
  
  <!-- 返回箭头 -->
  <path d="M 590 60 L 560 60" stroke="#666" stroke-width="2" marker-end="url(#backarrow)"/>
  <path d="M 590 120 L 560 120" stroke="#666" stroke-width="2" marker-end="url(#backarrow)"/>
  <path d="M 590 180 L 560 180" stroke="#666" stroke-width="2" marker-end="url(#backarrow)"/>
  <path d="M 590 240 L 560 240" stroke="#666" stroke-width="2" marker-end="url(#backarrow)"/>
  
  <defs>
    <marker id="backarrow" markerWidth="8" markerHeight="6" refX="7" refY="3" orient="auto">
      <polygon points="0 0, 8 3, 0 6" fill="#666"/>
    </marker>
  </defs>
</svg> 