<?xml version="1.0" encoding="UTF-8" standalone="no"?>
<svg width="800" height="350" viewBox="0 0 800 350" xmlns="http://www.w3.org/2000/svg">
  <!-- 流程步骤 -->
  <rect x="50" y="30" width="120" height="40" fill="none" stroke="#333" stroke-width="1" rx="5"/>
  <text x="110" y="45" text-anchor="middle" font-size="12" font-weight="bold">1. 客户端</text>
  <text x="110" y="60" text-anchor="middle" font-size="10">数据封装</text>
  
  <rect x="50" y="90" width="120" height="40" fill="none" stroke="#333" stroke-width="1" rx="5"/>
  <text x="110" y="105" text-anchor="middle" font-size="12" font-weight="bold">2. 交换机</text>
  <text x="110" y="120" text-anchor="middle" font-size="10">MAC转发</text>
  
  <rect x="50" y="150" width="120" height="40" fill="none" stroke="#333" stroke-width="1" rx="5"/>
  <text x="110" y="165" text-anchor="middle" font-size="12" font-weight="bold">3. 路由器</text>
  <text x="110" y="180" text-anchor="middle" font-size="10">NAT转换</text>
  
  <rect x="50" y="210" width="120" height="40" fill="none" stroke="#333" stroke-width="1" rx="5"/>
  <text x="110" y="225" text-anchor="middle" font-size="12" font-weight="bold">4. 互联网</text>
  <text x="110" y="240" text-anchor="middle" font-size="10">路由转发</text>
  
  <rect x="50" y="270" width="120" height="40" fill="none" stroke="#333" stroke-width="1" rx="5"/>
  <text x="110" y="285" text-anchor="middle" font-size="12" font-weight="bold">5. 目标服务器</text>
  <text x="110" y="300" text-anchor="middle" font-size="10">处理请求</text>
  
  <!-- 详细说明 -->
  <rect x="220" y="20" width="520" height="50" fill="none" stroke="#ddd" stroke-width="1" rx="3"/>
  <text x="230" y="35" font-size="11" font-weight="bold">源地址: 192.168.1.100:12345 → 目标地址: 203.208.60.1:80</text>
  <text x="230" y="50" font-size="10">数据包结构: [以太网头|IP头|TCP头|应用数据]</text>
  <text x="230" y="62" font-size="9" fill="#666">包含源MAC、目标MAC、源IP、目标IP、源端口、目标端口</text>
  
  <rect x="220" y="80" width="520" height="50" fill="none" stroke="#ddd" stroke-width="1" rx="3"/>
  <text x="230" y="95" font-size="11" font-weight="bold">MAC地址表查询和转发</text>
  <text x="230" y="110" font-size="10">查找目标设备MAC地址，转发到对应交换机端口</text>
  <text x="230" y="122" font-size="9" fill="#666">如果MAC地址未知，广播ARP请求获取MAC地址</text>
  
  <rect x="220" y="140" width="520" height="50" fill="none" stroke="#ddd" stroke-width="1" rx="3"/>
  <text x="230" y="155" font-size="11" font-weight="bold">网络地址转换(NAT)</text>
  <text x="230" y="170" font-size="10">内网地址 192.168.1.100:12345 → 公网地址 124.156.78.90:50001</text>
  <text x="230" y="182" font-size="9" fill="#666">在NAT表中记录映射关系，用于返回数据的转换</text>
  
  <rect x="220" y="200" width="520" height="50" fill="none" stroke="#ddd" stroke-width="1" rx="3"/>
  <text x="230" y="215" font-size="11" font-weight="bold">Internet路由选择</text>
  <text x="230" y="230" font-size="10">根据目标IP地址查询路由表，选择最佳路径转发</text>
  <text x="230" y="242" font-size="9" fill="#666">经过多个路由器，每个路由器都会查询自己的路由表</text>
  
  <rect x="220" y="260" width="520" height="50" fill="none" stroke="#ddd" stroke-width="1" rx="3"/>
  <text x="230" y="275" font-size="11" font-weight="bold">到达目标并处理</text>
  <text x="230" y="290" font-size="10">数据包到达目标服务器，应用程序处理请求</text>
  <text x="230" y="302" font-size="9" fill="#666">服务器解析请求，准备响应数据</text>
  
  <!-- 箭头 -->
  <path d="M 180 50 L 210 50" stroke="#333" stroke-width="2" marker-end="url(#arrow)"/>
  <path d="M 180 110 L 210 110" stroke="#333" stroke-width="2" marker-end="url(#arrow)"/>
  <path d="M 180 170 L 210 170" stroke="#333" stroke-width="2" marker-end="url(#arrow)"/>
  <path d="M 180 230 L 210 230" stroke="#333" stroke-width="2" marker-end="url(#arrow)"/>
  <path d="M 180 290 L 210 290" stroke="#333" stroke-width="2" marker-end="url(#arrow)"/>
  
  <defs>
    <marker id="arrow" markerWidth="8" markerHeight="6" refX="7" refY="3" orient="auto">
      <polygon points="0 0, 8 3, 0 6" fill="#333"/>
    </marker>
  </defs>
</svg> 