<?xml version="1.0" encoding="UTF-8" standalone="no"?>
<svg width="800" height="400" viewBox="0 0 800 400" xmlns="http://www.w3.org/2000/svg">
  <defs>
    <marker id="maparrow" markerWidth="10" markerHeight="7" refX="9" refY="3.5" orient="auto">
      <polygon points="0 0, 10 3.5, 0 7" fill="#333"/>
    </marker>
  </defs>
  
  <!-- 内网设备 -->
  <rect x="50" y="80" width="130" height="60" fill="none" stroke="#333" stroke-width="2" rx="5"/>
  <text x="115" y="100" text-anchor="middle" font-size="12" font-weight="bold">内网客户端A</text>
  <text x="115" y="115" text-anchor="middle" font-size="11">192.168.1.100</text>
  <text x="115" y="130" text-anchor="middle" font-size="10">端口: 12345</text>
  
  <rect x="50" y="160" width="130" height="60" fill="none" stroke="#333" stroke-width="2" rx="5"/>
  <text x="115" y="180" text-anchor="middle" font-size="12" font-weight="bold">内网客户端B</text>
  <text x="115" y="195" text-anchor="middle" font-size="11">192.168.1.101</text>
  <text x="115" y="210" text-anchor="middle" font-size="10">端口: 23456</text>
  
  <rect x="50" y="240" width="130" height="60" fill="none" stroke="#333" stroke-width="2" rx="5"/>
  <text x="115" y="260" text-anchor="middle" font-size="12" font-weight="bold">内网客户端C</text>
  <text x="115" y="275" text-anchor="middle" font-size="11">192.168.1.102</text>
  <text x="115" y="290" text-anchor="middle" font-size="10">端口: 34567</text>
  
  <!-- NAT路由器 -->
  <rect x="300" y="140" width="130" height="120" fill="none" stroke="#333" stroke-width="2" rx="5"/>
  <text x="365" y="165" text-anchor="middle" font-size="14" font-weight="bold">NAT路由器</text>
  <text x="365" y="185" text-anchor="middle" font-size="12">公网IP:</text>
  <text x="365" y="200" text-anchor="middle" font-size="12" font-weight="bold">124.156.78.90</text>
  <text x="365" y="220" text-anchor="middle" font-size="11">映射端口:</text>
  <text x="365" y="235" text-anchor="middle" font-size="10">50001, 50002, 50003</text>
  
  <!-- 外部服务器 -->
  <rect x="580" y="140" width="130" height="120" fill="none" stroke="#333" stroke-width="2" rx="5"/>
  <text x="645" y="165" text-anchor="middle" font-size="14" font-weight="bold">外部服务器</text>
  <text x="645" y="185" text-anchor="middle" font-size="12">多个目标:</text>
  <text x="645" y="200" text-anchor="middle" font-size="10">203.208.60.1:80</text>
  <text x="645" y="215" text-anchor="middle" font-size="10">8.8.8.8:53</text>
  <text x="645" y="230" text-anchor="middle" font-size="10">1.1.1.1:443</text>
  
  <!-- 连接线和标签 -->
  <line x1="180" y1="110" x2="300" y2="160" stroke="#333" stroke-width="2" marker-end="url(#maparrow)"/>
  <text x="230" y="130" font-size="10" fill="#333">12345→50001</text>
  
  <line x1="180" y1="190" x2="300" y2="200" stroke="#333" stroke-width="2" marker-end="url(#maparrow)"/>
  <text x="230" y="195" font-size="10" fill="#333">23456→50002</text>
  
  <line x1="180" y1="270" x2="300" y2="240" stroke="#333" stroke-width="2" marker-end="url(#maparrow)"/>
  <text x="230" y="260" font-size="10" fill="#333">34567→50003</text>
  
  <line x1="430" y1="200" x2="580" y2="200" stroke="#333" stroke-width="2" marker-end="url(#maparrow)"/>
  <text x="500" y="190" font-size="10" fill="#333">统一公网IP</text>
  
  <!-- NAT映射表 -->
  <rect x="200" y="320" width="400" height="70" fill="none" stroke="#333" stroke-width="1" rx="5"/>
  <text x="400" y="340" text-anchor="middle" font-size="13" font-weight="bold">NAT映射表</text>
  <text x="220" y="360" font-size="11" font-weight="bold">内网地址</text>
  <text x="320" y="360" font-size="11" font-weight="bold">公网地址</text>
  <text x="460" y="360" font-size="11" font-weight="bold">目标地址</text>
  <text x="560" y="360" font-size="11" font-weight="bold">状态</text>
  <text x="220" y="375" font-size="10">192.168.1.100:12345</text>
  <text x="320" y="375" font-size="10">124.156.78.90:50001</text>
  <text x="460" y="375" font-size="10">203.208.60.1:80</text>
  <text x="560" y="375" font-size="10">活动</text>
</svg> 